<?xml version="1.0" encoding="utf-8"?>
<!-- Generator: Adobe Illustrator 16.0.0, SVG Export Plug-In . SVG Version: 6.00 Build 0)  -->
<!DOCTYPE svg PUBLIC "-//W3C//DTD SVG 1.1//EN" "http://www.w3.org/Graphics/SVG/1.1/DTD/svg11.dtd">
<svg version="1.1" id="Layer_1" xmlns="http://www.w3.org/2000/svg" xmlns:xlink="http://www.w3.org/1999/xlink" x="0px" y="0px"
	 width="100px" height="65px" viewBox="0 0 100 65" enable-background="new 0 0 100 65" xml:space="preserve">
<g id="Layer_2">
	<g>
		<g>
			<path fill="#BF0A30" d="M0,0h100v5H0V0z"/>
			<path fill="#BF0A30" d="M0,10h100v5H0V10z"/>
			<path fill="#BF0A30" d="M0,20h100v5H0V20z"/>
			<path fill="#BF0A30" d="M0,30h100v5H0V30z"/>
			<path fill="#BF0A30" d="M0,39.999h100v5H0V39.999z"/>
			<path fill="#BF0A30" d="M0,49.999h100V55H0V49.999z"/>
			<path fill="#BF0A30" d="M0,60h100v5H0V60z"/>
		</g>
		<g>
			<path fill="#FFFFFF" d="M0,5h100v5H0V5z"/>
			<path fill="#FFFFFF" d="M0,15h100v5H0V15z"/>
			<path fill="#FFFFFF" d="M0,25h100v5H0V25z"/>
			<path fill="#FFFFFF" d="M0,35h100v4.999H0V35z"/>
			<path fill="#FFFFFF" d="M0,44.999h100v5H0V44.999z"/>
			<path fill="#FFFFFF" d="M0,55h100v5H0V55z"/>
		</g>
		<path fill="#002868" d="M0,0h40v35H0V0z"/>
		<path fill="#FFFFFF" d="M3.334,1.498l0.364,1.383h1.177L3.922,3.736L4.287,5.12L3.334,4.265L2.38,5.12l0.364-1.383L1.792,2.881
			h1.177L3.334,1.498z"/>
		<path fill="#FFFFFF" d="M10,1.498l0.364,1.383h1.178l-0.953,0.855l0.364,1.383L10,4.265L9.048,5.12l0.364-1.383L8.458,2.881h1.178
			L10,1.498z"/>
		<path fill="#FFFFFF" d="M16.667,1.498l0.365,1.383h1.177l-0.953,0.855L17.62,5.12l-0.953-0.855L15.714,5.12l0.364-1.383
			l-0.954-0.855h1.178L16.667,1.498z"/>
		<path fill="#FFFFFF" d="M23.333,1.498l0.365,1.383h1.177l-0.953,0.855l0.364,1.383l-0.954-0.855L22.381,5.12l0.363-1.383
			l-0.953-0.855h1.177L23.333,1.498z"/>
		<path fill="#FFFFFF" d="M30,1.498l0.364,1.383h1.177l-0.953,0.855l0.363,1.383L30,4.265L29.047,5.12l0.364-1.383l-0.953-0.855
			h1.178L30,1.498z"/>
		<path fill="#FFFFFF" d="M36.667,1.498l0.364,1.383h1.178l-0.954,0.855l0.364,1.383l-0.952-0.855L35.713,5.12l0.365-1.383
			l-0.953-0.855h1.178L36.667,1.498z"/>
		<path fill="#FFFFFF" d="M6.667,4.998l0.364,1.383h1.178L7.256,7.236L7.62,8.62L6.667,7.766L5.714,8.62l0.365-1.383L5.125,6.381
			h1.178L6.667,4.998z"/>
		<path fill="#FFFFFF" d="M13.333,4.998l0.364,1.383h1.178l-0.953,0.855l0.365,1.383l-0.954-0.854L12.381,8.62l0.364-1.383
			l-0.953-0.855h1.178L13.333,4.998z"/>
		<path fill="#FFFFFF" d="M20,4.998l0.364,1.383h1.178l-0.953,0.855l0.364,1.383L20,7.766L19.048,8.62l0.363-1.383l-0.953-0.855
			h1.177L20,4.998z"/>
		<path fill="#FFFFFF" d="M26.667,4.998l0.364,1.383h1.177l-0.953,0.855l0.363,1.383l-0.952-0.854L25.714,8.62l0.364-1.383
			l-0.953-0.855h1.177L26.667,4.998z"/>
		<path fill="#FFFFFF" d="M33.333,4.998l0.364,1.383h1.178l-0.954,0.855l0.364,1.383l-0.953-0.854L32.38,8.62l0.364-1.383
			l-0.953-0.855h1.177L33.333,4.998z"/>
		<g transform="translate(0,14)">
			<path fill="#FFFFFF" d="M3.334-5.501l0.364,1.383h1.177L3.922-3.264l0.364,1.383L3.334-2.734L2.38-1.881l0.364-1.383L1.792-4.118
				h1.177L3.334-5.501z"/>
			<path fill="#FFFFFF" d="M10-5.501l0.364,1.383h1.178l-0.953,0.854l0.364,1.383L10-2.734L9.048-1.881l0.364-1.383L8.458-4.118
				h1.178L10-5.501z"/>
			<path fill="#FFFFFF" d="M16.667-5.501l0.365,1.383h1.177l-0.953,0.854l0.364,1.383l-0.953-0.854l-0.953,0.854l0.364-1.383
				l-0.954-0.854h1.178L16.667-5.501z"/>
			<path fill="#FFFFFF" d="M23.333-5.501l0.365,1.383h1.177l-0.953,0.854l0.364,1.383l-0.954-0.854L22.38-1.881l0.363-1.383
				L21.79-4.118h1.177L23.333-5.501z"/>
			<path fill="#FFFFFF" d="M30-5.501l0.364,1.383h1.177l-0.953,0.854l0.363,1.383L30-2.734L29.047-1.88l0.364-1.383l-0.953-0.854
				h1.178L30-5.501z"/>
			<path fill="#FFFFFF" d="M36.667-5.501l0.364,1.383h1.178l-0.954,0.854l0.364,1.383l-0.952-0.854l-0.954,0.854l0.365-1.383
				l-0.953-0.854h1.178L36.667-5.501z"/>
			<path fill="#FFFFFF" d="M6.667-2.001l0.364,1.383h1.178L7.256,0.236L7.62,1.619L6.667,0.766L5.714,1.619l0.365-1.383L5.125-0.618
				h1.178L6.667-2.001z"/>
			<path fill="#FFFFFF" d="M13.333-2.001l0.364,1.383h1.178l-0.953,0.854l0.365,1.383l-0.954-0.854l-0.952,0.854l0.364-1.383
				l-0.953-0.854h1.178L13.333-2.001z"/>
			<path fill="#FFFFFF" d="M20-2.001l0.364,1.383h1.178l-0.953,0.854l0.364,1.383L20,0.766L19.048,1.62l0.363-1.383l-0.953-0.854
				h1.177L20-2.001z"/>
			<path fill="#FFFFFF" d="M26.667-2.001l0.364,1.383h1.177l-0.953,0.854l0.363,1.383l-0.952-0.854l-0.954,0.854l0.364-1.383
				l-0.953-0.854H26.3L26.667-2.001z"/>
			<path fill="#FFFFFF" d="M33.333-2.001l0.364,1.383h1.178l-0.954,0.854l0.364,1.383l-0.953-0.854L32.38,1.619l0.364-1.383
				l-0.953-0.854h1.177L33.333-2.001z"/>
		</g>
		<g transform="translate(0,28)">
			<path fill="#FFFFFF" d="M3.334-12.501l0.364,1.383h1.177l-0.953,0.854l0.364,1.383L3.334-9.735L2.38-8.881l0.364-1.383
				l-0.953-0.854h1.177L3.334-12.501z"/>
			<path fill="#FFFFFF" d="M10-12.501l0.364,1.383h1.178l-0.953,0.854l0.364,1.383L10-9.735L9.048-8.881l0.364-1.383l-0.953-0.854
				h1.178L10-12.501z"/>
			<path fill="#FFFFFF" d="M16.667-12.501l0.365,1.383h1.177l-0.953,0.854l0.364,1.383l-0.953-0.854l-0.953,0.854l0.364-1.383
				l-0.954-0.854h1.178L16.667-12.501z"/>
			<path fill="#FFFFFF" d="M23.333-12.501l0.365,1.383h1.177l-0.953,0.854l0.364,1.383l-0.954-0.854L22.38-8.881l0.363-1.383
				l-0.953-0.854h1.177L23.333-12.501z"/>
			<path fill="#FFFFFF" d="M30-12.501l0.364,1.383h1.177l-0.953,0.854l0.363,1.383L30-9.735l-0.953,0.854l0.364-1.383l-0.953-0.854
				h1.178L30-12.501z"/>
			<path fill="#FFFFFF" d="M36.667-12.501l0.364,1.383h1.178l-0.954,0.854l0.364,1.383l-0.952-0.854l-0.954,0.854l0.365-1.383
				l-0.953-0.854h1.178L36.667-12.501z"/>
			<path fill="#FFFFFF" d="M6.667-9.001l0.364,1.383h1.178L7.256-6.764L7.62-5.381L6.667-6.235L5.714-5.381l0.365-1.383L5.125-7.618
				h1.178L6.667-9.001z"/>
			<path fill="#FFFFFF" d="M13.333-9.001l0.364,1.383h1.178l-0.953,0.854l0.365,1.383l-0.954-0.854l-0.952,0.854l0.364-1.383
				l-0.953-0.854h1.178L13.333-9.001z"/>
			<path fill="#FFFFFF" d="M20-9.001l0.364,1.383h1.178l-0.953,0.854l0.364,1.383L20-6.235l-0.952,0.854l0.363-1.383l-0.953-0.854
				h1.177L20-9.001z"/>
			<path fill="#FFFFFF" d="M26.667-9.001l0.364,1.383h1.177l-0.953,0.854l0.363,1.383l-0.952-0.854l-0.954,0.854l0.364-1.383
				l-0.953-0.854H26.3L26.667-9.001z"/>
			<path fill="#FFFFFF" d="M33.333-9.001l0.364,1.383h1.178l-0.954,0.854l0.364,1.383l-0.953-0.854L32.38-5.381l0.364-1.383
				l-0.953-0.854h1.177L33.333-9.001z"/>
		</g>
		<g transform="translate(0,42)">
			<path fill="#FFFFFF" d="M3.334-19.501l0.364,1.383h1.177l-0.953,0.855l0.364,1.383l-0.953-0.855L2.38-15.88l0.364-1.383
				l-0.953-0.855h1.177L3.334-19.501z"/>
			<path fill="#FFFFFF" d="M10-19.501l0.364,1.383h1.178l-0.953,0.855l0.364,1.383L10-16.735L9.048-15.88l0.364-1.383l-0.953-0.855
				h1.178L10-19.501z"/>
			<path fill="#FFFFFF" d="M16.667-19.501l0.365,1.383h1.177l-0.953,0.855l0.364,1.383l-0.953-0.855l-0.953,0.855l0.364-1.383
				l-0.954-0.855h1.178L16.667-19.501z"/>
			<path fill="#FFFFFF" d="M23.333-19.501l0.365,1.383h1.177l-0.953,0.855l0.364,1.383l-0.954-0.855L22.38-15.88l0.363-1.383
				l-0.953-0.855h1.177L23.333-19.501z"/>
			<path fill="#FFFFFF" d="M30-19.501l0.364,1.383h1.177l-0.953,0.855l0.363,1.383L30-16.735l-0.953,0.855l0.364-1.383l-0.953-0.855
				h1.178L30-19.501z"/>
			<path fill="#FFFFFF" d="M36.667-19.501l0.364,1.383h1.178l-0.954,0.855l0.364,1.383l-0.952-0.855l-0.954,0.855l0.365-1.383
				l-0.953-0.855h1.178L36.667-19.501z"/>
			<path fill="#FFFFFF" d="M6.667-16.001l0.364,1.383h1.178l-0.953,0.855L7.62-12.38l-0.953-0.855L5.714-12.38l0.365-1.383
				l-0.954-0.855h1.178L6.667-16.001z"/>
			<path fill="#FFFFFF" d="M13.333-16.001l0.364,1.383h1.178l-0.953,0.855l0.365,1.383l-0.954-0.855l-0.952,0.855l0.364-1.383
				l-0.953-0.855h1.178L13.333-16.001z"/>
			<path fill="#FFFFFF" d="M20-16.001l0.364,1.383h1.178l-0.953,0.855l0.364,1.383L20-13.235l-0.952,0.855l0.363-1.383l-0.953-0.855
				h1.177L20-16.001z"/>
			<path fill="#FFFFFF" d="M26.667-16.001l0.364,1.383h1.177l-0.953,0.855l0.363,1.383l-0.952-0.855l-0.954,0.855l0.364-1.383
				l-0.953-0.855H26.3L26.667-16.001z"/>
			<path fill="#FFFFFF" d="M33.333-16.001l0.364,1.383h1.178l-0.954,0.855l0.364,1.383l-0.953-0.855L32.38-12.38l0.364-1.383
				l-0.953-0.855h1.177L33.333-16.001z"/>
		</g>
		<path fill="#FFFFFF" d="M3.334,29.498l0.364,1.383h1.177l-0.953,0.855l0.364,1.383l-0.953-0.855L2.38,33.12l0.364-1.383
			l-0.953-0.855h1.177L3.334,29.498z"/>
		<path fill="#FFFFFF" d="M10,29.498l0.364,1.383h1.178l-0.953,0.855l0.364,1.383L10,32.265L9.048,33.12l0.364-1.383l-0.953-0.855
			h1.178L10,29.498z"/>
		<path fill="#FFFFFF" d="M16.667,29.498l0.365,1.383h1.177l-0.953,0.855l0.364,1.383l-0.953-0.855l-0.953,0.855l0.364-1.383
			l-0.954-0.855h1.178L16.667,29.498z"/>
		<path fill="#FFFFFF" d="M23.333,29.498l0.365,1.383h1.177l-0.953,0.855l0.364,1.383l-0.954-0.855l-0.952,0.855l0.363-1.383
			l-0.953-0.855h1.177L23.333,29.498z"/>
		<path fill="#FFFFFF" d="M30,29.498l0.364,1.383h1.177l-0.953,0.855l0.363,1.383L30,32.265l-0.953,0.855l0.364-1.383l-0.953-0.855
			h1.178L30,29.498z"/>
		<path fill="#FFFFFF" d="M36.667,29.498l0.364,1.383h1.178l-0.954,0.855l0.364,1.383l-0.952-0.855l-0.954,0.855l0.365-1.383
			l-0.953-0.855h1.178L36.667,29.498z"/>
	</g>
</g>
</svg>
