<?xml version="1.0" encoding="utf-8"?>
<!-- Generator: Adobe Illustrator 16.0.0, SVG Export Plug-In . SVG Version: 6.00 Build 0)  -->
<!DOCTYPE svg PUBLIC "-//W3C//DTD SVG 1.1//EN" "http://www.w3.org/Graphics/SVG/1.1/DTD/svg11.dtd">
<svg version="1.1" id="Layer_1" xmlns="http://www.w3.org/2000/svg" xmlns:xlink="http://www.w3.org/1999/xlink" x="0px" y="0px"
	 width="100px" height="65px" viewBox="0 0 100 65" enable-background="new 0 0 100 65" xml:space="preserve">
<g id="Layer_4">
	<g transform="matrix(.93064 0 0 .93064 7.3818 1.3971)">
		<rect x="-7.931" y="-1.501" fill="#FFFFFF" width="107.452" height="69.844"/>
		<g transform="translate(.0027368 .0019119)">
			<path fill="#3863C2" d="M62.296,40.704c0.168-0.602,0.264-1.198,0.304-1.796c0.038-0.595,0.013-1.191-0.069-1.771
				c-0.166-1.158-0.55-2.271-1.142-3.271c-0.594-0.998-1.383-1.893-2.33-2.612c-0.472-0.36-0.988-0.663-1.538-0.932
				c-0.55-0.267-1.131-0.497-1.748-0.658c-0.615-0.161-1.224-0.26-1.838-0.295c-0.615-0.036-1.224-0.012-1.816,0.068
				c-1.189,0.161-2.333,0.56-3.357,1.136c-0.783,0.45-1.488,1.103-2.14,1.84c-0.656,0.737-1.271,1.554-1.889,2.317
				c-0.835,0.814-1.829,1.475-2.933,1.931c-0.555,0.228-1.122,0.403-1.725,0.523c-0.601,0.122-1.226,0.185-1.863,0.185
				c-0.637,0-1.262-0.063-1.864-0.185c-0.601-0.12-1.194-0.295-1.747-0.523c-1.105-0.454-2.099-1.117-2.934-1.931
				c-0.836-0.816-1.513-1.784-1.98-2.863c-0.235-0.539-0.414-1.095-0.536-1.681c-0.123-0.587-0.187-1.195-0.187-1.817
				c0-0.622,0.064-1.231,0.187-1.817c0.018-0.085,0.049-0.165,0.069-0.249c-0.969,2.165-1.514,4.55-1.514,7.065
				c0,9.765,8.131,17.673,18.147,17.673c5.42,0,10.232-2.36,13.558-6.042c1.153-1.282,2.145-2.701,2.886-4.271
				C62.3,40.718,62.296,40.709,62.296,40.704L62.296,40.704z"/>
			<path fill="#E7253A" d="M45.854,15.669c-7.437,0-13.834,4.385-16.631,10.632c-0.02,0.084-0.052,0.164-0.07,0.249
				c-0.123,0.586-0.186,1.196-0.186,1.817c0,0.623,0.063,1.23,0.186,1.817c0.124,0.587,0.303,1.142,0.536,1.681
				c0.467,1.078,1.144,2.048,1.98,2.864c0.836,0.814,1.83,1.473,2.936,1.931c0.552,0.228,1.145,0.403,1.746,0.523
				c0.602,0.12,1.226,0.183,1.865,0.183c0.637,0,1.262-0.063,1.864-0.183c0.601-0.12,1.171-0.295,1.725-0.523
				c1.104-0.458,2.098-1.117,2.933-1.931c0.618-0.764,1.233-1.581,1.887-2.317c0.655-0.737,1.359-1.39,2.143-1.84
				c1.023-0.577,2.168-0.974,3.356-1.136c0.594-0.08,1.203-0.104,1.816-0.068c0.612,0.036,1.225,0.134,1.837,0.295
				c0.617,0.161,1.198,0.391,1.748,0.66c0.55,0.267,1.066,0.57,1.538,0.93c0.947,0.719,1.736,1.614,2.33,2.612
				c0.592,0.999,0.976,2.113,1.143,3.272c0.082,0.58,0.107,1.174,0.068,1.771c-0.04,0.597-0.135,1.194-0.303,1.794
				c1.055-2.241,1.677-4.709,1.677-7.337C63.977,23.598,55.87,15.669,45.854,15.669L45.854,15.669z"/>
			<g transform="matrix(.83421 -.55145 -.55145 -.83421 120.5 220.79)">
				<path d="M11.302,188.577l-0.206,17.788l2.891-0.034l0.205-17.786L11.302,188.577z"/>
				<path d="M9.571,198.295l-2.889,0.033l-0.094,8.081l2.891-0.032L9.571,198.295z"/>
				<path d="M6.794,188.622l-0.092,8.059l2.889-0.033l0.094-8.058L6.794,188.622z"/>
				<path d="M2.287,188.681L2.08,206.468l2.891-0.031l0.206-17.787L2.287,188.681z"/>
			</g>
			<g transform="matrix(-.83421 .55145 .55145 .83421 72.924 -4.8007)">
				<path d="M16.784,17.664l-2.891,0.034l-0.092,8.081l2.887-0.032L16.784,17.664z"/>
				<path d="M14.006,7.993l-0.092,8.058l2.891-0.034l0.093-8.058L14.006,7.993z"/>
				<path d="M9.498,8.05L9.292,25.838l2.891-0.034l0.206-17.785L9.498,8.05z"/>
				<path d="M7.767,17.77l-2.888,0.031l-0.096,8.083l2.891-0.034L7.767,17.77z"/>
				<path d="M4.99,8.096l-0.091,8.057l2.887-0.032l0.095-8.058L4.99,8.096z"/>
			</g>
			<g transform="matrix(-.83421 -.55145 .55145 -.83421 16.888 276.94)">
				<path d="M83.248,219.831l-2.892,0.032l-0.092,8.081l2.891-0.034L83.248,219.831z"/>
				<path d="M80.473,210.156l-0.097,8.058l2.892-0.032l0.092-8.058L80.473,210.156z"/>
				<path d="M78.738,219.882l-2.885,0.034l-0.097,8.082l2.89-0.034L78.738,219.882z"/>
				<path d="M75.962,210.209l-0.091,8.056l2.887-0.033l0.097-8.058L75.962,210.209z"/>
				<path d="M74.234,219.935l-2.892,0.031l-0.092,8.081l2.887-0.033L74.234,219.935z"/>
				<path d="M71.453,210.262l-0.091,8.056l2.892-0.032l0.09-8.057L71.453,210.262z"/>
			</g>
			<g transform="matrix(.83421 .55145 -.55145 .83421 141.53 -65.246)">
				<polygon points="-55.155,126.176 -52.258,126.142 -52.464,143.93 -55.361,143.963 				"/>
				<polygon points="-59.664,126.228 -56.768,126.194 -56.975,143.981 -59.871,144.016 				"/>
				<polygon points="-64.175,126.279 -61.278,126.246 -61.484,144.034 -64.381,144.068 				"/>
			</g>
		</g>
	</g>
</g>
</svg>
