<?xml version="1.0" encoding="utf-8"?>
<!-- Generator: Adobe Illustrator 16.0.0, SVG Export Plug-In . SVG Version: 6.00 Build 0)  -->
<!DOCTYPE svg PUBLIC "-//W3C//DTD SVG 1.1//EN" "http://www.w3.org/Graphics/SVG/1.1/DTD/svg11.dtd">
<svg version="1.1" id="Layer_1" xmlns="http://www.w3.org/2000/svg" xmlns:xlink="http://www.w3.org/1999/xlink" x="0px" y="0px"
	 width="100px" height="65px" viewBox="0 0 100 65" enable-background="new 0 0 100 65" xml:space="preserve">
<g id="Layer_3">
	<g>
		<g>
			<rect fill="#EC1C2E" stroke="#000000" stroke-width="0.1143" width="100" height="65"/>
			<path fill="#EC1C2E" stroke="#000000" stroke-width="0.1143" d="M50,32.5"/>
		</g>
		<g>
			<polygon fill="#FFE152" stroke="#000000" stroke-width="0.0571" points="16.667,6.644 14.475,13.285 7.267,13.285 13.12,17.417 
				10.871,24.052 16.667,19.929 22.462,24.052 20.243,17.361 26.067,13.313 18.887,13.313 			"/>
			<polygon fill="#FFE152" stroke="#000000" stroke-width="0.0571" points="30.847,4.41 32.079,6.426 30.477,8.2 32.847,7.678 
				34.065,9.706 34.286,7.363 36.641,6.854 34.416,5.912 34.662,3.579 33.066,5.347 			"/>
			<polygon fill="#FFE152" stroke="#000000" stroke-width="0.0571" points="38.596,10.072 38.936,12.395 36.756,13.43 39.15,13.839 
				39.472,16.168 40.602,14.09 42.977,14.506 41.295,12.801 42.446,10.74 40.274,11.771 			"/>
			<polygon fill="#FFE152" stroke="#000000" stroke-width="0.0571" points="36.87,21.876 38.856,23.201 38.166,25.466 
				40.093,24.021 42.072,25.364 41.263,23.147 43.181,21.72 40.756,21.777 39.975,19.559 39.288,21.816 			"/>
			<polygon fill="#FFE152" stroke="#000000" stroke-width="0.0571" points="30.751,27.203 32.074,29.162 30.555,31.004 
				32.899,30.38 34.208,32.353 34.322,30.003 36.652,29.392 34.386,28.548 34.525,26.207 33.012,28.042 			"/>
		</g>
	</g>
</g>
</svg>
