<?xml version="1.0" encoding="utf-8"?>
<!-- Generator: Adobe Illustrator 16.0.0, SVG Export Plug-In . SVG Version: 6.00 Build 0)  -->
<!DOCTYPE svg PUBLIC "-//W3C//DTD SVG 1.1//EN" "http://www.w3.org/Graphics/SVG/1.1/DTD/svg11.dtd">
<svg version="1.1" id="Layer_1" xmlns="http://www.w3.org/2000/svg" xmlns:xlink="http://www.w3.org/1999/xlink" x="0px" y="0px"
	 width="600px" height="400px" viewBox="0 0 600 400" enable-background="new 0 0 600 400" xml:space="preserve">
<g>
	<path fill="#FFFFFF" d="M113.348,329.518c-5.106,0-9.305-0.605-12.836-1.849c-3.704-1.304-7.022-3.461-9.864-6.409
		c-6.113-6.287-9.22-15.411-9.22-27.104s3.378-26.394,10.04-43.695l14.039-33.968c3.014-6.996,3.493-10.811,3.493-12.788
		c0-0.028,0,0.295,0,0.295s0.293,0,0.292,0c-0.438,0-5.56,1.189-21.493,22.381l-10.758,14.768l-20.65,30.273
		c-4.903,10.467-8.808,19.273-11.605,26.228l-7.086,17.1c-2.071,4.769-3.864,8.061-5.518,10.158
		c-2.384,3.021-5.739,4.614-9.704,4.614c-3.043,0-6.009-0.623-8.815-1.847c-2.685-1.168-5.069-2.719-7.083-4.605
		c-4.43-4.189-6.667-8.964-6.667-14.205c0-1.63,0.377-4.184,3.174-10.772l5.26-11.974c16.091-37.24,30.913-85.222,44.038-142.585
		c4.822-21.103,8.357-40.327,10.507-57.137c1.724-14.813,10.792-17.034,16.044-17.034c5.268,0,9.76,1.5,13.351,4.458
		c6.398,5.335,9.511,11.337,9.275,17.861c-0.185,5.039-0.827,10.727-1.908,16.908c-1.055,6.031-2.441,12.691-4.119,19.795
		c-1.673,7.071-3.58,14.574-5.669,22.301l-0.029,0.104c-5.738,19.645-10.066,34.038-12.862,42.782
		c-1.061,3.275-2.071,6.376-3.03,9.31c6.14-8.82,10.274-14.511,12.499-17.215c3.848-4.68,7.206-8.374,9.98-10.979
		c6.503-6.356,14.794-9.58,24.644-9.58c8.559,0,15.553,3.294,20.79,9.791c4.708,5.998,7.074,12.628,7.074,19.762
		c0,6.338-0.647,12.166-1.923,17.319c-1.223,4.936-2.803,10.008-4.697,15.075c-1.831,4.902-3.882,10.065-6.096,15.344l-6.521,15.394
		c-5.815,14.854-8.763,26.319-8.763,33.157c0,1.467,0.192,2.051,0.317,3.051c0.025,0,0.052,0,0.082,0
		c2.718,0,5.106-1.094,7.299-2.381c4.802-2.816,6.825-3.617,8.532-3.617c4.773,0,8.106,3.355,8.106,8.329
		c0,10.465-4.684,19.223-13.921,26.145C125.003,327.192,118.953,329.518,113.348,329.518z"/>
	<path fill="#FFFFFF" d="M262.274,329.682c-3.499,0-7.046-0.665-10.543-1.976c-7.229-2.872-12.484-8.832-15.718-17.751
		c-0.733-2.141-1.289-4.198-1.668-6.172c-6.33,9.227-13.507,16.214-21.462,20.88c-5.65,3.231-11.696,4.854-18.02,4.854
		c-6.411,0-12.104-1.54-16.922-4.575c-4.63-2.916-8.605-6.966-11.813-12.038c-6.244-10.146-9.107-22.835-8.546-37.774
		c0.543-18.136,5.365-36.177,14.329-53.581c8.222-16.251,18.815-29.748,31.468-40.084c13.018-10.843,25.618-16.357,37.409-16.357
		c9.947,0,18.384,4.018,25.172,11.966c5.554-8.127,10.827-11.966,16.306-11.966c6.211,0,11.135,1.444,14.634,4.291
		c8.569,7.007,8.34,12.908,6.606,16.655c-26.798,61.691-32.896,84.184-33.29,92.188l-0.02,0.269
		c-0.157,1.566-0.236,3.268-0.236,5.057c0,8.172,2.368,8.172,3.146,8.172c3.02,0,5.451-0.48,7.225-1.428
		c3.628-1.935,5.784-2.689,7.691-2.689c4.035,0,8.106,2.657,8.106,8.594c0,10.137-4.661,18.886-13.854,26.004
		C275.831,327.174,269.106,329.681,262.274,329.682z M242.555,194.945c-1.427,0-3.982,0.525-8.053,3.029
		c-3.674,2.263-7.316,5.431-10.821,9.418c-3.615,4.107-7.047,9.063-10.202,14.73c-3.201,5.746-6.05,12.083-8.47,18.836
		c-5.084,14.428-7.667,28.971-7.667,43.196c0,8.155,1.586,12.291,4.716,12.291c1.19,0,5.767-0.909,14.717-12.604
		c10.588-13.887,20.135-32.979,28.371-56.741c2.548-7.211,4.719-14.48,6.466-21.65c-0.38-4.599-2.001-7.729-5.068-9.813
		C246.358,195.509,245.392,194.945,242.555,194.945z"/>
	<path fill="#FFFFFF" d="M408.921,329.518c-5.132,0-9.355-0.638-12.91-1.949c-3.669-1.351-6.963-3.523-9.789-6.456
		c-6.1-6.157-9.22-14.75-9.22-25.485c0-11.962,3.327-26.943,9.89-44.525c4.66-11.767,7.99-19.9,9.938-24.277l4.414-10.364
		c2.953-6.852,3.607-10.655,3.628-12.661c-0.313-0.078-0.848-0.166-1.693-0.176c-0.391,0.126-2.623,1.052-7.582,6.868
		c-4.887,5.734-9.183,11.028-12.77,15.73l-11.031,14.882l-21.152,30.3c-4.902,10.464-8.801,19.284-11.592,26.224l-7.086,17.11
		c-2.076,4.777-3.87,8.074-5.52,10.167c-2.385,3.02-5.739,4.613-9.702,4.613c-3.044,0-6.011-0.621-8.815-1.845
		c-2.686-1.168-5.07-2.718-7.083-4.604c-4.429-4.19-6.666-8.964-6.666-14.204c0-1.649,0.395-4.224,3.316-10.799l4.997-11.97
		c1.537-3.457,3.349-7.92,5.386-13.262l7.297-20.073c12.492-35.104,15.117-48.854,15.117-54.203c0-4.118-1.404-5.392-1.932-5.831
		l-2.565-2.019c-1.525-1.196-3.353-3.529-3.353-7.814c0-2.895,0.955-5.635,2.84-8.145c1.582-2.107,3.645-3.948,6.132-5.47
		l0.129-0.076c4.73-2.718,9.612-4.096,14.511-4.096c4.771,0,8.506,0.635,11.417,1.94c2.844,1.28,5.281,3.042,7.254,5.241
		c4.146,4.432,6.248,9.262,6.248,14.355c0,4.086-0.461,8.256-1.368,12.398c-0.088,0.402-0.179,0.804-0.271,1.208l4.929-6.649
		c7.134-9.372,12.664-15.443,16.949-18.616c8.751-6.635,15.803-9.877,21.506-9.877c5.133,0,9.612,0.782,13.314,2.324
		c3.723,1.556,7.01,3.799,9.778,6.669c5.773,6.021,8.697,13.703,8.697,22.839c0,8.354-1.699,17.147-5.049,26.138
		c-3.151,8.464-5.941,15.464-8.294,20.805c-2.263,5.134-4.455,10.427-6.517,15.737c-7.546,18.886-9.33,28.5-9.443,33.308
		c0.353,0.068,0.898,0.135,1.699,0.135c2.719,0,5.106-0.625,7.3-1.911c4.804-2.817,6.826-3.384,8.533-3.384
		c4.772,0,8.104,3.474,8.104,8.447c0,10.477-4.734,19.298-14.073,26.219C420.561,327.124,414.544,329.518,408.921,329.518z"/>
	<path fill="#FFFFFF" d="M557.718,329.682c-3.499,0-7.046-0.665-10.543-1.976c-7.23-2.872-12.484-8.833-15.718-17.752
		c-0.734-2.14-1.29-4.197-1.67-6.169c-6.33,9.225-13.506,16.212-21.461,20.878c-5.651,3.231-11.697,4.854-18.021,4.854
		c-6.41,0-12.103-1.54-16.922-4.575c-4.63-2.916-8.604-6.966-11.813-12.038c-6.244-10.145-9.107-22.834-8.546-37.774
		c0.544-18.136,5.365-36.177,14.329-53.581c8.223-16.251,18.815-29.749,31.469-40.084c13.019-10.843,25.618-16.357,37.409-16.357
		c9.945,0,18.383,4.018,25.172,11.966c5.553-8.127,10.825-11.966,16.305-11.966c6.21,0,11.134,1.444,14.635,4.291
		c8.568,7.009,8.34,12.91,6.605,16.656c-26.799,61.69-32.896,84.183-33.29,92.188l-0.02,0.269c-0.156,1.566-0.235,3.268-0.235,5.057
		c0,8.172,2.368,8.172,3.146,8.172c3.02,0,5.451-0.48,7.225-1.428c3.629-1.935,5.785-2.689,7.691-2.689
		c4.035,0,8.106,2.657,8.106,8.594c0,10.137-4.661,18.887-13.853,26.004C571.274,327.174,564.55,329.681,557.718,329.682z
		 M537.998,194.945c-1.427,0-3.982,0.525-8.052,3.029c-3.674,2.262-7.315,5.431-10.821,9.418c-3.616,4.109-7.048,9.065-10.201,14.73
		c-3.2,5.741-6.049,12.077-8.471,18.836c-5.084,14.427-7.667,28.97-7.667,43.196c0,8.155,1.587,12.291,4.716,12.291
		c1.19,0,5.768-0.909,14.717-12.604c10.589-13.888,20.136-32.979,28.37-56.741c2.552-7.219,4.723-14.489,6.466-21.65
		c-0.38-4.599-2.001-7.729-5.067-9.813C541.8,195.508,540.836,194.945,537.998,194.945z"/>
</g>
</svg>
