<?xml version="1.0" encoding="utf-8"?>
<!-- Generator: Adobe Illustrator 16.0.0, SVG Export Plug-In . SVG Version: 6.00 Build 0)  -->
<!DOCTYPE svg PUBLIC "-//W3C//DTD SVG 1.1//EN" "http://www.w3.org/Graphics/SVG/1.1/DTD/svg11.dtd">
<svg version="1.1" id="Layer_1" xmlns="http://www.w3.org/2000/svg" xmlns:xlink="http://www.w3.org/1999/xlink" x="0px" y="0px"
	 width="600px" height="400px" viewBox="0 0 600 400" enable-background="new 0 0 600 400" xml:space="preserve">
<g>
	<path fill="#361656" d="M113.348,329.519c-5.106,0-9.305-0.603-12.836-1.842c-3.704-1.299-7.022-3.447-9.864-6.385
		c-6.113-6.263-9.22-15.351-9.22-26.999s3.378-26.293,10.04-43.527l14.039-33.838c3.014-6.969,3.493-10.77,3.493-12.739
		c0-0.027,0,0.294,0,0.294s0.293,0,0.292,0c-0.438,0-5.56,1.186-21.493,22.295l-10.758,14.711l-20.65,30.157
		c-4.903,10.427-8.808,19.199-11.605,26.128L37.7,314.808c-2.071,4.751-3.864,8.029-5.518,10.119
		c-2.384,3.01-5.739,4.596-9.704,4.596c-3.043,0-6.009-0.621-8.815-1.84c-2.685-1.163-5.069-2.708-7.083-4.587
		c-4.43-4.174-6.667-8.931-6.667-14.15c0-1.625,0.377-4.168,3.174-10.731l5.26-11.928c16.091-37.097,30.913-84.895,44.038-142.037
		c4.822-21.022,8.357-40.172,10.507-56.917c1.724-14.756,10.792-16.969,16.044-16.969c5.268,0,9.76,1.494,13.351,4.441
		c6.398,5.315,9.511,11.293,9.275,17.792c-0.185,5.02-0.827,10.686-1.908,16.843c-1.055,6.008-2.441,12.643-4.119,19.719
		c-1.673,7.044-3.58,14.519-5.669,22.216l-0.029,0.104c-5.738,19.57-10.066,33.907-12.862,42.618
		c-1.061,3.262-2.071,6.351-3.03,9.274c6.14-8.786,10.274-14.455,12.499-17.149c3.848-4.662,7.206-8.342,9.98-10.937
		c6.503-6.332,14.794-9.543,24.644-9.543c8.559,0,15.553,3.281,20.79,9.753c4.708,5.975,7.074,12.579,7.074,19.686
		c0,6.313-0.647,12.119-1.923,17.253c-1.223,4.917-2.803,9.97-4.697,15.017c-1.831,4.883-3.882,10.026-6.096,15.284l-6.521,15.336
		c-5.815,14.796-8.763,26.217-8.763,33.029c0,1.462,0.192,2.043,0.317,3.039c0.025,0,0.052,0,0.082,0
		c2.718,0,5.106-1.089,7.299-2.371c4.802-2.805,6.825-3.604,8.532-3.604c4.773,0,8.106,3.342,8.106,8.297
		c0,10.425-4.684,19.149-13.921,26.044C125.003,327.201,118.953,329.519,113.348,329.519z"/>
	<path fill="#361656" d="M262.274,329.682c-3.499,0-7.046-0.661-10.543-1.968c-7.229-2.861-12.484-8.798-15.718-17.683
		c-0.733-2.133-1.289-4.183-1.668-6.148c-6.33,9.191-13.507,16.151-21.462,20.8c-5.65,3.219-11.696,4.836-18.02,4.836
		c-6.411,0-12.104-1.535-16.922-4.559c-4.63-2.905-8.605-6.938-11.813-11.991c-6.244-10.107-9.107-22.748-8.546-37.629
		c0.543-18.066,5.365-36.038,14.329-53.376c8.222-16.188,18.815-29.633,31.468-39.93c13.018-10.801,25.618-16.294,37.409-16.294
		c9.947,0,18.384,4.002,25.172,11.92c5.554-8.096,10.827-11.92,16.306-11.92c6.211,0,11.135,1.438,14.634,4.274
		c8.569,6.98,8.34,12.858,6.606,16.591c-26.798,61.454-32.896,83.861-33.29,91.833l-0.02,0.269c-0.157,1.56-0.236,3.255-0.236,5.037
		c0,8.141,2.368,8.141,3.146,8.141c3.02,0,5.451-0.479,7.225-1.422c3.628-1.929,5.784-2.68,7.691-2.68
		c4.035,0,8.106,2.647,8.106,8.562c0,10.098-4.661,18.813-13.854,25.903C275.831,327.184,269.106,329.682,262.274,329.682z
		 M242.555,195.462c-1.427,0-3.982,0.523-8.053,3.018c-3.674,2.254-7.316,5.411-10.821,9.382
		c-3.615,4.091-7.047,9.027-10.202,14.673c-3.201,5.724-6.05,12.037-8.47,18.764c-5.084,14.372-7.667,28.86-7.667,43.03
		c0,8.123,1.586,12.244,4.716,12.244c1.19,0,5.767-0.906,14.717-12.557c10.588-13.833,20.135-32.853,28.371-56.523
		c2.548-7.183,4.719-14.424,6.466-21.565c-0.38-4.581-2.001-7.7-5.068-9.776C246.358,196.024,245.392,195.462,242.555,195.462z"/>
	<path fill="#361656" d="M408.921,329.519c-5.132,0-9.354-0.636-12.91-1.942c-3.669-1.345-6.963-3.509-9.789-6.43
		c-6.1-6.134-9.22-14.693-9.22-25.388c0-11.916,3.327-26.839,9.89-44.354c4.66-11.723,7.99-19.824,9.938-24.184l4.414-10.325
		c2.953-6.826,3.606-10.614,3.628-12.612c-0.313-0.078-0.848-0.165-1.693-0.175c-0.391,0.125-2.623,1.048-7.582,6.842
		c-4.887,5.711-9.183,10.985-12.77,15.669l-11.031,14.825l-21.152,30.183c-4.901,10.425-8.801,19.211-11.592,26.124l-7.086,17.045
		c-2.076,4.758-3.87,8.042-5.52,10.128c-2.386,3.008-5.739,4.596-9.702,4.596c-3.044,0-6.011-0.619-8.815-1.839
		c-2.686-1.164-5.069-2.707-7.083-4.586c-4.429-4.174-6.666-8.931-6.666-14.149c0-1.644,0.395-4.208,3.316-10.759l4.997-11.923
		c1.537-3.443,3.349-7.89,5.386-13.211l7.297-19.996c12.492-34.969,15.117-48.666,15.117-53.995c0-4.102-1.404-5.371-1.932-5.809
		l-2.565-2.011c-1.524-1.191-3.353-3.515-3.353-7.784c0-2.884,0.955-5.614,2.84-8.114c1.582-2.099,3.645-3.933,6.132-5.449
		l0.129-0.076c4.73-2.708,9.612-4.08,14.511-4.08c4.771,0,8.506,0.633,11.417,1.932c2.845,1.275,5.281,3.03,7.254,5.221
		c4.146,4.415,6.248,9.226,6.248,14.3c0,4.07-0.461,8.224-1.368,12.351c-0.088,0.4-0.179,0.801-0.271,1.203l4.929-6.624
		c7.134-9.336,12.664-15.383,16.949-18.544c8.751-6.609,15.803-9.839,21.506-9.839c5.133,0,9.612,0.779,13.314,2.315
		c3.723,1.55,7.01,3.784,9.777,6.644c5.773,5.998,8.697,13.65,8.697,22.751c0,8.322-1.699,17.082-5.049,26.038
		c-3.151,8.432-5.941,15.404-8.294,20.725c-2.263,5.115-4.455,10.388-6.518,15.678c-7.546,18.813-9.329,28.39-9.442,33.18
		c0.353,0.067,0.897,0.134,1.699,0.134c2.719,0,5.105-0.623,7.3-1.902c4.804-2.807,6.826-3.372,8.533-3.372
		c4.771,0,8.104,3.461,8.104,8.415c0,10.436-4.734,19.225-14.073,26.117C420.561,327.134,414.544,329.519,408.921,329.519z"/>
	<path fill="#361656" d="M557.718,329.682c-3.499,0-7.046-0.661-10.543-1.968c-7.229-2.861-12.483-8.8-15.718-17.684
		c-0.734-2.132-1.29-4.182-1.67-6.146c-6.33,9.189-13.506,16.149-21.461,20.798c-5.651,3.219-11.697,4.836-18.021,4.836
		c-6.41,0-12.103-1.535-16.922-4.559c-4.63-2.905-8.604-6.938-11.813-11.991c-6.244-10.106-9.107-22.746-8.546-37.629
		c0.544-18.066,5.364-36.038,14.329-53.376c8.223-16.188,18.814-29.634,31.469-39.93c13.019-10.801,25.618-16.294,37.409-16.294
		c9.944,0,18.383,4.002,25.172,11.92c5.553-8.096,10.825-11.92,16.305-11.92c6.21,0,11.134,1.438,14.635,4.274
		c8.568,6.982,8.34,12.86,6.605,16.592c-26.799,61.453-32.896,83.86-33.29,91.833l-0.021,0.268
		c-0.155,1.561-0.234,3.255-0.234,5.037c0,8.142,2.368,8.142,3.146,8.142c3.021,0,5.451-0.479,7.226-1.423
		c3.629-1.928,5.784-2.679,7.69-2.679c4.035,0,8.106,2.647,8.106,8.562c0,10.099-4.661,18.814-13.854,25.904
		C571.274,327.184,564.55,329.682,557.718,329.682z M537.998,195.462c-1.427,0-3.982,0.523-8.052,3.018
		c-3.675,2.253-7.315,5.411-10.821,9.382c-3.616,4.093-7.048,9.029-10.201,14.673c-3.2,5.719-6.049,12.031-8.471,18.764
		c-5.084,14.371-7.667,28.858-7.667,43.03c0,8.123,1.587,12.244,4.716,12.244c1.19,0,5.768-0.906,14.717-12.557
		c10.589-13.834,20.137-32.853,28.37-56.523c2.552-7.19,4.724-14.433,6.466-21.565c-0.38-4.581-2.001-7.7-5.066-9.776
		C541.8,196.023,540.836,195.462,537.998,195.462z"/>
</g>
</svg>
