<?xml version="1.0" encoding="utf-8"?>
<!-- Generator: Adobe Illustrator 16.0.0, SVG Export Plug-In . SVG Version: 6.00 Build 0)  -->
<!DOCTYPE svg PUBLIC "-//W3C//DTD SVG 1.1//EN" "http://www.w3.org/Graphics/SVG/1.1/DTD/svg11.dtd">
<svg version="1.1" id="Layer_1" xmlns="http://www.w3.org/2000/svg" xmlns:xlink="http://www.w3.org/1999/xlink" x="0px" y="0px"
	 width="400px" height="400px" viewBox="0 0 400 400" enable-background="new 0 0 400 400" xml:space="preserve">
<g>
	<g>
		<path fill="#361656" d="M78.366,168.889c-3.112,0-8.687,4.753-16.721,14.26l-7.045,8.658l-13.581,17.74
			c-3.282,6.225-5.856,11.402-7.724,15.532l-4.583,9.846c-1.188,2.435-2.222,4.146-3.098,5.136
			c-0.878,0.988-2.066,1.484-3.565,1.484c-1.5,0-2.943-0.27-4.329-0.806c-1.387-0.537-2.589-1.231-3.607-2.079
			c-2.151-1.811-3.226-3.791-3.226-5.941c0-0.85,0.594-2.518,1.783-5.008l3.395-6.876c10.581-21.785,20.172-49.399,28.774-82.841
			c3.168-12.335,5.46-23.427,6.875-33.272c0.622-4.753,2.942-7.13,6.96-7.13c2.602,0,4.753,0.623,6.451,1.867
			c3.281,2.434,4.866,5.037,4.753,7.809c-0.114,2.773-0.509,5.886-1.188,9.336c-0.679,3.452-1.557,7.202-2.631,11.247
			c-1.076,4.046-2.292,8.305-3.65,12.774c-3.735,11.374-6.508,19.58-8.318,24.615c-5.546,15.222-8.969,24.135-10.27,26.737
			c0.849-1.019,1.952-2.405,3.31-4.159c10.298-13.523,16.664-21.602,19.098-24.233c2.433-2.631,4.499-4.654,6.196-6.069
			c3.565-3.111,8.091-4.668,13.581-4.668c4.47,0,8.063,1.5,10.78,4.499c2.546,2.886,3.819,6.041,3.819,9.464
			c0,3.424-0.382,6.508-1.146,9.251c-0.764,2.746-1.74,5.532-2.929,8.361c-1.188,2.83-2.491,5.744-3.904,8.742l-4.244,8.913
			c-3.961,8.997-5.941,15.675-5.941,20.031c0,3.056,1.244,4.582,3.735,4.582c2.376,0,4.541-0.508,6.493-1.526
			s3.211-1.526,3.777-1.526c1.188,0,1.782,0.594,1.782,1.78c0,5.037-2.546,9.252-7.639,12.647c-3.509,2.32-6.706,3.479-9.591,3.479
			c-2.885,0-5.277-0.297-7.172-0.891c-1.896-0.594-3.579-1.57-5.05-2.928c-3.339-3.058-5.008-7.556-5.008-13.496
			c0-6.396,2.093-14.431,6.281-24.106l9.167-19.522c1.753-3.621,2.631-6.479,2.631-8.573
			C81.846,169.937,80.686,168.889,78.366,168.889z"/>
		<path fill="#361656" d="M179.117,218.119c0,5.207,1.838,7.809,5.517,7.809c2.546,0,4.654-0.395,6.323-1.188
			c1.668-0.793,2.787-1.189,3.353-1.189c1.188,0,1.782,0.624,1.782,1.867c0,4.867-2.546,9.055-7.639,12.563
			c-5.376,3.679-10.864,4.584-16.466,2.718c-3.679-1.302-6.395-4.103-8.148-8.403c-0.849-2.207-1.273-4.215-1.273-6.025
			c0-2.941,0.282-6.056,0.849-9.338c-5.262,10.752-11.798,18.164-19.607,22.238c-3.113,1.583-6.423,2.376-9.931,2.376
			c-3.509,0-6.55-0.721-9.125-2.164c-2.576-1.442-4.768-3.438-6.578-5.983c-3.679-5.317-5.348-11.996-5.008-20.031
			c0.339-10.07,3.31-19.946,8.912-29.622c5.148-9.053,11.656-16.438,19.522-22.153c7.865-5.828,15.221-8.743,22.069-8.743
			c6.846,0,12.363,3.141,16.551,9.422c3.904-6.281,7.355-9.422,10.355-9.422c3.226,0,5.658,0.594,7.3,1.783
			c3.111,2.264,4.214,4.244,3.311,5.941c-14.205,29.085-21.503,47.192-21.898,54.321
			C179.173,215.912,179.117,216.988,179.117,218.119z M132.009,218.459c0,6.79,2.178,10.186,6.536,10.186
			c3.338,0,7.44-2.83,12.308-8.487c7.13-8.318,13.438-19.522,18.928-33.612c1.753-4.414,3.226-8.827,4.414-13.241
			c-0.227-3.848-1.84-6.676-4.838-8.488c-1.019-0.622-2.533-0.934-4.541-0.934c-2.009,0-4.358,0.736-7.045,2.207
			c-2.688,1.472-5.292,3.48-7.809,6.026c-2.519,2.546-4.867,5.56-7.045,9.04c-2.179,3.48-4.089,7.257-5.729,11.332
			C133.735,201.2,132.009,209.857,132.009,218.459z"/>
	</g>
	<path fill="#361656" d="M69.425,112.202c0,0,79.075-129.702,177.575-84.702c71.42,32.628,4.479,200.689-13.09,221.859
		c0,0-31.994,99.289,38.09,150.641c0,0-43.945-114.152-16.018-129.919c0,0,76.574,42.343,86.034,14.864
		c0,0,0.438-22.68-2.252-27.478c-2.599-4.636,10.402-8.291,7.207-18.019c-0.723-2.2-1.838-3.686-2.89-5.033
		c-2.55-3.27-4.977-4.803-6.569-3.525c-2.252,1.803,14.215-5.418,11.236-13.142c-2.555-6.624-3.519-12.229-1.75-17.75
		c3.139-9.807,17.991-6.523,17.991-15.504c0-6.757-27.027-44.595-25.676-49.099c1.351-4.504,7.656-23.423,7.656-23.423
		S319.945-2.442,203.729,4.766c0,0-86.229-4.766-151.417,97.329L69.425,112.202z"/>
	<path fill="#361656" d="M338.5,115c-3.25,1.25,9.319,1.89,15.875-0.875c9.188-3.875-2.92,5.875-16.396,3.875
		C324.5,116,338.5,115,338.5,115z"/>
	<path fill="#361656" d="M334.477,114.241c-3.199,1.372,9.385,1.536,15.83-1.476c9.034-4.22-2.694,5.981-16.236,4.493
		C320.524,115.771,334.477,114.241,334.477,114.241z"/>
</g>
</svg>
