<?xml version="1.0" encoding="utf-8"?>
<!-- Generator: Adobe Illustrator 16.0.0, SVG Export Plug-In . SVG Version: 6.00 Build 0)  -->
<!DOCTYPE svg PUBLIC "-//W3C//DTD SVG 1.1//EN" "http://www.w3.org/Graphics/SVG/1.1/DTD/svg11.dtd">
<svg version="1.1" id="Layer_1" xmlns="http://www.w3.org/2000/svg" xmlns:xlink="http://www.w3.org/1999/xlink" x="0px" y="0px"
	 width="60px" height="60px" viewBox="17.703 226.072 60 60" enable-background="new 17.703 226.072 60 60" xml:space="preserve">
<g>
	<path fill="#361656" d="M77.703,256.075c0-16.673-13.427-30.183-30-30.183c-16.573,0-30,13.51-30,30.183
		c0,15.063,10.97,27.55,25.313,29.815v-21.093h-7.622v-8.723h7.622v-6.649c0-7.564,4.476-11.742,11.331-11.742
		c3.283,0,6.716,0.589,6.716,0.589v7.424h-3.784c-3.726,0-4.889,2.327-4.889,4.714v5.666h8.32l-1.33,8.723h-6.99v21.094
		C66.732,283.625,77.703,271.138,77.703,256.075z"/>
</g>
</svg>
