<?xml version="1.0" encoding="utf-8"?>
<!-- Generator: Adobe Illustrator 16.0.0, SVG Export Plug-In . SVG Version: 6.00 Build 0)  -->
<!DOCTYPE svg PUBLIC "-//W3C//DTD SVG 1.1//EN" "http://www.w3.org/Graphics/SVG/1.1/DTD/svg11.dtd">
<svg version="1.1" id="Isolation_Mode" xmlns="http://www.w3.org/2000/svg" xmlns:xlink="http://www.w3.org/1999/xlink" x="0px"
	 y="0px" width="60px" height="60px" viewBox="0 0 60 60" enable-background="new 0 0 60 60" xml:space="preserve">
<g>
	<path fill="none" d="M43.585,17.221c-1.282,0.431-3.069,1.859-4.345,1.029c-4.291-4.009-11.623-0.095-10.713,5.646
		c0.332,1.211-2.453,0.172-3.094,0.168c-3.834-0.902-7.043-2.851-9.648-5.793c-0.404-0.456-0.557-0.332-0.759,0.136
		c-1.307,2.86-0.321,5.865,1.989,7.876c-0.904,0.318-2.807-1.279-2.569,0.059c0.259,2.869,2.216,4.687,4.775,5.688
		c-0.655,0.448-3.091-0.446-2.269,0.803c1.064,2.39,3.113,3.299,5.484,3.921c-2.674,1.95-5.652,2.736-8.982,2.507
		c11.197,8.138,28.393-1.401,27.969-15.19c-0.09-1.816,2.299-2.447,3.156-4.371c-1.165,0.36-2.148,0.785-3.275,0.846
		C43.275,18.488,43.566,18.067,43.585,17.221z"/>
	<path fill="#361656" d="M30,0C13.433,0,0,13.432,0,30s13.433,30,30,30c16.568,0,30-13.432,30-30S46.568,0,30,0z M44.165,25.227
		c0.423,13.788-16.772,23.327-27.97,15.189c3.331,0.23,6.309-0.557,8.982-2.506c-2.37-0.623-4.42-1.532-5.484-3.922
		c-0.822-1.249,1.614-0.354,2.27-0.803c-2.56-1.002-4.517-2.819-4.775-5.688c-0.238-1.339,1.665,0.26,2.568-0.059
		c-2.31-2.012-3.295-5.016-1.988-7.877c0.201-0.467,0.354-0.592,0.758-0.136c2.606,2.942,5.814,4.892,9.649,5.794
		c0.64,0.004,3.425,1.043,3.094-0.169c-0.911-5.741,6.422-9.655,10.712-5.646c1.276,0.829,3.063-0.6,4.346-1.029
		c-0.02,0.846-0.31,1.267-2.281,3.323c1.128-0.06,2.111-0.485,3.275-0.845C46.463,22.778,44.074,23.41,44.165,25.227z"/>
</g>
</svg>
