<?xml version="1.0" encoding="utf-8"?>
<!-- Generator: Adobe Illustrator 16.0.0, SVG Export Plug-In . SVG Version: 6.00 Build 0)  -->
<!DOCTYPE svg PUBLIC "-//W3C//DTD SVG 1.1//EN" "http://www.w3.org/Graphics/SVG/1.1/DTD/svg11.dtd">
<svg version="1.1" id="Layer_1" xmlns="http://www.w3.org/2000/svg" xmlns:xlink="http://www.w3.org/1999/xlink" x="0px" y="0px"
	 width="60px" height="60px" viewBox="117.102 226.07 60 60" enable-background="new 117.102 226.07 60 60" xml:space="preserve">
<g>
	<path fill="#361656" d="M147.102,226.07c-16.568,0-30,13.433-30,30c0,16.568,13.432,30,30,30s30-13.43,30-30
		C177.102,239.503,163.67,226.07,147.102,226.07z M163.6,263.044c0,5.263-4.263,9.526-9.523,9.526h-13.95
		c-5.259,0-9.524-4.264-9.524-9.526v-13.948c0-5.26,4.263-9.525,9.524-9.525h13.95c5.261,0,9.525,4.266,9.523,9.525V263.044z"/>
	<path fill="#361656" d="M154.24,242.693h-14.276c-3.492,0-6.323,2.83-6.323,6.322v14.276c0,3.492,2.831,6.321,6.323,6.321h14.276
		c3.492,0,6.322-2.829,6.322-6.321v-14.276C160.563,245.521,157.732,242.693,154.24,242.693z M147.102,264.717
		c-4.729,0-8.562-3.834-8.562-8.563c0-4.73,3.833-8.563,8.562-8.563s8.561,3.833,8.563,8.563
		C155.665,260.882,151.831,264.717,147.102,264.717z M155.949,249.259c-1.102,0-1.995-0.893-1.995-1.993
		c0-1.102,0.894-1.994,1.995-1.994s1.994,0.893,1.994,1.994C157.943,248.366,157.05,249.259,155.949,249.259z"/>
	<circle fill="#361656" cx="147.102" cy="256.154" r="5.55"/>
</g>
</svg>
