<?xml version="1.0" encoding="utf-8"?>
<!-- Generator: Adobe Illustrator 16.0.0, SVG Export Plug-In . SVG Version: 6.00 Build 0)  -->
<!DOCTYPE svg PUBLIC "-//W3C//DTD SVG 1.1//EN" "http://www.w3.org/Graphics/SVG/1.1/DTD/svg11.dtd">
<svg version="1.1" id="Layer_1" xmlns="http://www.w3.org/2000/svg" xmlns:xlink="http://www.w3.org/1999/xlink" x="0px" y="0px"
	 width="100px" height="89.225px" viewBox="11.442 21.902 100 89.225" enable-background="new 11.442 21.902 100 89.225"
	 xml:space="preserve">
<g>
	<path fill="#361656" d="M111.442,57.463c0-19.64-22.386-35.561-50-35.561s-50,15.92-50,35.561c0,17.33,17.434,31.756,40.505,34.912
		c-1.698,5.966-5.338,14.901-12.487,18.752c0,0,19.125-0.709,29.444-18.5C92.978,90.066,111.442,75.299,111.442,57.463z"/>
	<g>
		<path fill="#FFFFFF" d="M35.018,49.17h-6.463v-2.334H44.29v2.334h-6.496v18.919h-2.776V49.17z"/>
		<path fill="#FFFFFF" d="M47.724,61.404l-2.207,6.685h-2.838L49.9,46.836h3.313l7.251,21.253h-2.933l-2.271-6.685H47.724z
			 M54.692,59.26l-2.081-6.117c-0.473-1.388-0.79-2.649-1.104-3.879h-0.063c-0.313,1.262-0.663,2.555-1.071,3.848L48.29,59.26
			H54.692z"/>
		<path fill="#FFFFFF" d="M63.581,46.836h2.744v18.952h9.082v2.301H63.581V46.836z"/>
		<path fill="#FFFFFF" d="M78.46,46.836h2.744v10.248h0.094c0.567-0.819,1.135-1.576,1.671-2.271l6.496-7.978h3.406l-7.694,9.019
			l8.293,12.235h-3.248l-7-10.437l-2.018,2.333v8.104H78.46V46.836z"/>
	</g>
</g>
</svg>
