<?xml version="1.0" encoding="utf-8"?>
<!-- Generator: Adobe Illustrator 16.0.0, SVG Export Plug-In . SVG Version: 6.00 Build 0)  -->
<!DOCTYPE svg PUBLIC "-//W3C//DTD SVG 1.1//EN" "http://www.w3.org/Graphics/SVG/1.1/DTD/svg11.dtd">
<svg version="1.1" id="Layer_1" xmlns="http://www.w3.org/2000/svg" xmlns:xlink="http://www.w3.org/1999/xlink" x="0px" y="0px"
	 width="100px" height="66.223px" viewBox="11 124 100 66.223" enable-background="new 11 124 100 66.223" xml:space="preserve">
<g>
	<g>
		<path fill="#361656" d="M75.747,171H60.94C53.08,171,44,160.73,44,151.791v-13.7C44,129.152,52.945,124,60.94,124h38.403
			c7.916,0,11.657,5.088,11.657,14.091v13.7c0,9.094-3.798,19.209-11.657,19.209H87.252c1.22,3,5.42,11.027,5.42,11.027
			S80.939,176,75.747,171z M60.94,127C54.542,127,48,131.587,48,138.091v13.7C48,158.664,54.896,167,60.94,167h16.049l0.469,0.374
			c1.867,1.885,4.705,4.16,7.476,6.297c-0.647-1.381-1.135-2.534-1.498-3.448L82.103,167h17.24c5.719,0,9.657-7.934,9.657-15.209
			v-13.7c0-6.926-3.567-11.091-9.657-11.091H60.94z"/>
	</g>
	<path fill="#361656" d="M61.352,135H23.648C16.663,135,11,141.815,11,149.76v14.449C11,172.154,16.663,179,23.648,179h13.977
		c-1.185,3.391-3.387,7.713-7.453,11.223c0,0,9.413-5.734,14.824-11.223h16.356C68.337,179,74,172.154,74,164.209V149.76
		C74,141.815,68.337,135,61.352,135z"/>
	<g>
		<rect x="30" y="149" fill="#FFFFFF" width="25" height="3"/>
	</g>
	<g>
		<rect x="30" y="161" fill="#FFFFFF" width="25" height="3"/>
	</g>
	<g>
		<rect x="71" y="138" fill="#361656" width="25" height="3"/>
	</g>
	<g>
		<rect x="71" y="149" fill="#361656" width="25" height="3"/>
	</g>
</g>
</svg>
